<?xml version="1.0" encoding="UTF-8" standalone="yes"?>
<!-- Created with qrencode 4.1.1 (https://fukuchi.org/works/qrencode/index.html) -->
<svg width="3.49cm" height="3.49cm" viewBox="0 0 33 33" preserveAspectRatio="none" version="1.1" xmlns="http://www.w3.org/2000/svg">
	<g id="QRcode">
		<rect x="0" y="0" width="33" height="33" fill="#ffffff"/>
		<path style="stroke:#000000" transform="translate(2,2.5)" d="M0,0h1M1,0h1M2,0h1M3,0h1M4,0h1M5,0h1M6,0h1M10,0h1M12,0h1M13,0h1M17,0h1M19,0h1M22,0h1M23,0h1M24,0h1M25,0h1M26,0h1M27,0h1M28,0h1M0,1h1M6,1h1M8,1h1M10,1h1M11,1h1M13,1h1M14,1h1M15,1h1M17,1h1M22,1h1M28,1h1M0,2h1M2,2h1M3,2h1M4,2h1M6,2h1M8,2h1M9,2h1M10,2h1M11,2h1M13,2h1M17,2h1M18,2h1M19,2h1M20,2h1M22,2h1M24,2h1M25,2h1M26,2h1M28,2h1M0,3h1M2,3h1M3,3h1M4,3h1M6,3h1M8,3h1M12,3h1M13,3h1M14,3h1M18,3h1M20,3h1M22,3h1M24,3h1M25,3h1M26,3h1M28,3h1M0,4h1M2,4h1M3,4h1M4,4h1M6,4h1M8,4h1M9,4h1M10,4h1M14,4h1M17,4h1M19,4h1M22,4h1M24,4h1M25,4h1M26,4h1M28,4h1M0,5h1M6,5h1M8,5h1M11,5h1M20,5h1M22,5h1M28,5h1M0,6h1M1,6h1M2,6h1M3,6h1M4,6h1M5,6h1M6,6h1M8,6h1M10,6h1M12,6h1M14,6h1M16,6h1M18,6h1M20,6h1M22,6h1M23,6h1M24,6h1M25,6h1M26,6h1M27,6h1M28,6h1M12,7h1M13,7h1M14,7h1M15,7h1M20,7h1M2,8h1M5,8h1M6,8h1M7,8h1M8,8h1M9,8h1M10,8h1M15,8h1M16,8h1M17,8h1M18,8h1M19,8h1M21,8h1M23,8h1M24,8h1M25,8h1M26,8h1M27,8h1M0,9h1M1,9h1M3,9h1M4,9h1M5,9h1M7,9h1M8,9h1M12,9h1M16,9h1M20,9h1M23,9h1M27,9h1M28,9h1M1,10h1M4,10h1M6,10h1M7,10h1M9,10h1M10,10h1M11,10h1M12,10h1M13,10h1M16,10h1M18,10h1M19,10h1M21,10h1M24,10h1M28,10h1M0,11h1M1,11h1M2,11h1M3,11h1M5,11h1M8,11h1M11,11h1M12,11h1M15,11h1M16,11h1M18,11h1M22,11h1M25,11h1M0,12h1M2,12h1M5,12h1M6,12h1M8,12h1M11,12h1M12,12h1M13,12h1M15,12h1M18,12h1M19,12h1M20,12h1M21,12h1M22,12h1M25,12h1M26,12h1M27,12h1M0,13h1M2,13h1M5,13h1M7,13h1M8,13h1M12,13h1M14,13h1M17,13h1M18,13h1M20,13h1M22,13h1M25,13h1M0,14h1M3,14h1M4,14h1M6,14h1M11,14h1M12,14h1M13,14h1M16,14h1M17,14h1M19,14h1M22,14h1M25,14h1M26,14h1M28,14h1M2,15h1M3,15h1M4,15h1M5,15h1M7,15h1M10,15h1M11,15h1M13,15h1M15,15h1M16,15h1M17,15h1M18,15h1M19,15h1M25,15h1M27,15h1M0,16h1M2,16h1M6,16h1M8,16h1M10,16h1M12,16h1M14,16h1M16,16h1M19,16h1M20,16h1M22,16h1M24,16h1M27,16h1M2,17h1M3,17h1M8,17h1M9,17h1M11,17h1M13,17h1M14,17h1M15,17h1M17,17h1M20,17h1M23,17h1M25,17h1M28,17h1M0,18h1M1,18h1M4,18h1M6,18h1M7,18h1M8,18h1M10,18h1M14,18h1M17,18h1M19,18h1M23,18h1M26,18h1M28,18h1M3,19h1M9,19h1M10,19h1M12,19h1M14,19h1M15,19h1M17,19h1M18,19h1M19,19h1M20,19h1M21,19h1M22,19h1M23,19h1M25,19h1M0,20h1M1,20h1M3,20h1M5,20h1M6,20h1M7,20h1M11,20h1M13,20h1M15,20h1M17,20h1M20,20h1M21,20h1M22,20h1M23,20h1M24,20h1M26,20h1M27,20h1M8,21h1M9,21h1M10,21h1M11,21h1M12,21h1M14,21h1M15,21h1M16,21h1M17,21h1M19,21h1M20,21h1M24,21h1M25,21h1M0,22h1M1,22h1M2,22h1M3,22h1M4,22h1M5,22h1M6,22h1M8,22h1M9,22h1M11,22h1M12,22h1M13,22h1M16,22h1M17,22h1M18,22h1M19,22h1M20,22h1M22,22h1M24,22h1M25,22h1M26,22h1M28,22h1M0,23h1M6,23h1M8,23h1M9,23h1M10,23h1M11,23h1M17,23h1M19,23h1M20,23h1M24,23h1M25,23h1M28,23h1M0,24h1M2,24h1M3,24h1M4,24h1M6,24h1M10,24h1M11,24h1M13,24h1M15,24h1M16,24h1M19,24h1M20,24h1M21,24h1M22,24h1M23,24h1M24,24h1M28,24h1M0,25h1M2,25h1M3,25h1M4,25h1M6,25h1M9,25h1M10,25h1M11,25h1M16,25h1M18,25h1M19,25h1M20,25h1M23,25h1M24,25h1M25,25h1M26,25h1M27,25h1M0,26h1M2,26h1M3,26h1M4,26h1M6,26h1M8,26h1M11,26h1M12,26h1M14,26h1M18,26h1M21,26h1M24,26h1M27,26h1M28,26h1M0,27h1M6,27h1M9,27h1M11,27h1M13,27h1M14,27h1M15,27h1M19,27h1M21,27h1M22,27h1M25,27h1M0,28h1M1,28h1M2,28h1M3,28h1M4,28h1M5,28h1M6,28h1M11,28h1M12,28h1M14,28h1M16,28h1M17,28h1M20,28h1M21,28h1M23,28h1M24,28h1M25,28h1M26,28h1M28,28h1"/>
	</g>
</svg>
